<svg xmlns="http://www.w3.org/2000/svg" width="1200" height="630" viewBox="0 0 1200 630" role="img">
  <rect width="100%" height="100%" fill="#0a0a0a"/>
  <g stroke="#404040" stroke-width="1.5" opacity="0.7">
    <line x1="-200" y1="0" x2="0" y2="630"/><line x1="-152" y1="0" x2="48" y2="630"/><line x1="-104" y1="0" x2="96" y2="630"/><line x1="-56" y1="0" x2="144" y2="630"/><line x1="-8" y1="0" x2="192" y2="630"/><line x1="40" y1="0" x2="240" y2="630"/><line x1="88" y1="0" x2="288" y2="630"/><line x1="136" y1="0" x2="336" y2="630"/><line x1="184" y1="0" x2="384" y2="630"/><line x1="232" y1="0" x2="432" y2="630"/><line x1="280" y1="0" x2="480" y2="630"/><line x1="328" y1="0" x2="528" y2="630"/><line x1="376" y1="0" x2="576" y2="630"/><line x1="424" y1="0" x2="624" y2="630"/><line x1="472" y1="0" x2="672" y2="630"/><line x1="520" y1="0" x2="720" y2="630"/><line x1="568" y1="0" x2="768" y2="630"/><line x1="616" y1="0" x2="816" y2="630"/><line x1="664" y1="0" x2="864" y2="630"/><line x1="712" y1="0" x2="912" y2="630"/><line x1="760" y1="0" x2="960" y2="630"/><line x1="808" y1="0" x2="1008" y2="630"/><line x1="856" y1="0" x2="1056" y2="630"/><line x1="904" y1="0" x2="1104" y2="630"/><line x1="952" y1="0" x2="1152" y2="630"/><line x1="1000" y1="0" x2="1200" y2="630"/><line x1="1048" y1="0" x2="1248" y2="630"/><line x1="1096" y1="0" x2="1296" y2="630"/><line x1="1144" y1="0" x2="1344" y2="630"/><line x1="1192" y1="0" x2="1392" y2="630"/>
  </g>
  <text x="80" y="340" font-family="ui-monospace,monospace" font-size="120" fill="#dc143c" opacity="0.9">#</text>
  <rect x="80" y="380" width="160" height="4" fill="#22d3ee" opacity="0.6"/>

</svg>
