<svg xmlns="http://www.w3.org/2000/svg" width="1200" height="630" viewBox="0 0 1200 630" role="img">
  <rect width="100%" height="100%" fill="#0a0a0a"/>
  <g stroke="#262626" stroke-width="40" opacity="0.5">
    <line x1="0" y1="-40" x2="-400" y2="700"/><line x1="90" y1="-40" x2="-310" y2="700"/><line x1="180" y1="-40" x2="-220" y2="700"/><line x1="270" y1="-40" x2="-130" y2="700"/><line x1="360" y1="-40" x2="-40" y2="700"/><line x1="450" y1="-40" x2="50" y2="700"/><line x1="540" y1="-40" x2="140" y2="700"/><line x1="630" y1="-40" x2="230" y2="700"/><line x1="720" y1="-40" x2="320" y2="700"/><line x1="810" y1="-40" x2="410" y2="700"/><line x1="900" y1="-40" x2="500" y2="700"/><line x1="990" y1="-40" x2="590" y2="700"/><line x1="1080" y1="-40" x2="680" y2="700"/><line x1="1170" y1="-40" x2="770" y2="700"/><line x1="1260" y1="-40" x2="860" y2="700"/><line x1="1350" y1="-40" x2="950" y2="700"/><line x1="1440" y1="-40" x2="1040" y2="700"/><line x1="1530" y1="-40" x2="1130" y2="700"/>
  </g>
  <line x1="720" y1="-40" x2="320" y2="700" stroke="#dc143c" stroke-width="40" opacity="0.9"/>

</svg>
