<?xml version="1.0" encoding="iso-8859-1"?>
<!-- Generator: Adobe Illustrator 19.0.0, SVG Export Plug-In . SVG Version: 6.00 Build 0)  -->
<svg version="1.1" id="Layer_1" xmlns="http://www.w3.org/2000/svg" xmlns:xlink="http://www.w3.org/1999/xlink" x="0px" y="0px"
	 viewBox="0 0 512 512" style="enable-background:new 0 0 512 512;" xml:space="preserve">
<path style="fill:#7DD2F0;" d="M8.329,255.999c0,136.785,110.886,247.671,247.672,247.671s247.671-110.886,247.671-247.671
	S392.785,8.329,256.001,8.329S8.329,119.215,8.329,255.999z"/>
<path style="opacity:0.1;enable-background:new    ;" d="M74.96,255.999c0-125.486,93.327-229.159,214.356-245.433
	c-10.899-1.466-22.016-2.238-33.316-2.238C119.215,8.329,8.329,119.215,8.329,255.999S119.215,503.67,256.001,503.67
	c11.3,0,22.417-0.772,33.316-2.238C168.288,485.159,74.96,381.486,74.96,255.999z"/>
<polygon style="fill:#FFFFFF;" points="297.462,125.2 297.462,223.018 354.798,223.018 256.001,392.597 157.202,223.018 
	214.538,223.018 214.538,125.2 "/>
<path d="M255.999,512c-68.38,0-132.667-26.629-181.019-74.98C26.629,388.667,0,324.38,0,255.999
	c0-54.545,16.938-106.62,48.982-150.598c2.709-3.718,7.919-4.534,11.637-1.827c3.718,2.709,4.535,7.919,1.827,11.637
	c-29.955,41.109-45.788,89.793-45.788,140.788c0,63.931,24.896,124.035,70.102,169.24c45.206,45.206,105.31,70.102,169.24,70.102
	c48.035,0,94.365-14.174,133.982-40.988c3.811-2.579,8.987-1.58,11.566,2.229c2.579,3.81,1.58,8.987-2.229,11.566
	C356.934,496.837,307.376,512,255.999,512z"/>
<path d="M421.11,448.921c-2.288,0-4.564-0.936-6.21-2.774c-3.067-3.427-2.775-8.693,0.652-11.76
	c50.708-45.386,79.79-110.405,79.79-178.386c0-63.931-24.896-124.035-70.102-169.24c-45.205-45.207-105.309-70.103-169.241-70.103
	c-33.216,0-65.364,6.674-95.554,19.836c-29.165,12.717-55.165,30.866-77.28,53.945c-3.183,3.322-8.456,3.434-11.776,0.251
	c-3.322-3.183-3.435-8.454-0.252-11.776c23.648-24.679,51.455-44.089,82.65-57.69C186.09,7.141,220.479,0,255.999,0
	c68.381,0,132.668,26.629,181.02,74.98C485.371,123.333,512,187.62,512,255.999c0,72.714-31.105,142.256-85.338,190.798
	C425.073,448.22,423.087,448.921,421.11,448.921z"/>
<path d="M255.999,400.926c-2.964,0-5.705-1.575-7.196-4.137L150.004,227.21c-1.501-2.576-1.509-5.758-0.024-8.343
	c1.486-2.585,4.24-4.179,7.222-4.179h49.009v-89.489c0-4.6,3.728-8.329,8.329-8.329h82.923c4.601,0,8.329,3.729,8.329,8.329v89.489
	H354.8c2.982,0,5.736,1.594,7.222,4.179c1.485,2.585,1.476,5.767-0.024,8.343l-98.8,169.581
	C261.704,399.352,258.963,400.926,255.999,400.926z M171.693,231.347l84.307,144.706l84.307-144.706h-42.845
	c-4.601,0-8.329-3.729-8.329-8.329v-89.489h-66.265v89.489c0,4.6-3.728,8.329-8.329,8.329H171.693z"/>
<g>
</g>
<g>
</g>
<g>
</g>
<g>
</g>
<g>
</g>
<g>
</g>
<g>
</g>
<g>
</g>
<g>
</g>
<g>
</g>
<g>
</g>
<g>
</g>
<g>
</g>
<g>
</g>
<g>
</g>
</svg>
