<?xml version="1.0" encoding="iso-8859-1"?>
<!-- Generator: Adobe Illustrator 19.0.0, SVG Export Plug-In . SVG Version: 6.00 Build 0)  -->
<svg version="1.1" id="Layer_1" xmlns="http://www.w3.org/2000/svg" xmlns:xlink="http://www.w3.org/1999/xlink" x="0px" y="0px"
	 viewBox="0 0 483 483" style="enable-background:new 0 0 483 483;" xml:space="preserve">
<g>
	<g>
		<path style="fill:#FFD248;" d="M241.5,66C316.9,66,378,127.1,378,202.5S316.9,339,241.5,339S105,277.9,105,202.5
			S166.1,66,241.5,66z"/>
		<rect x="20.5" y="137.5" style="fill:#546A79;" width="39" height="71.5"/>
		<rect x="423.5" y="72.5" style="fill:#546A79;" width="39" height="71.5"/>
		<rect x="423.5" y="202.5" style="fill:#546A79;" width="39" height="71.5"/>
		<rect x="59.5" y="397.5" style="fill:#E7ECED;" width="364" height="78"/>
		<path style="fill:#AFB6BB;" d="M423.5,397.5h-364V7.5h364V397.5z M378,202.5C378,127.1,316.9,66,241.5,66S105,127.1,105,202.5
			S166.1,339,241.5,339S378,277.9,378,202.5z"/>
	</g>
	<g>
		<path d="M241.5,58.5c-79.402,0-144,64.598-144,144s64.598,144,144,144s144-64.598,144-144S320.902,58.5,241.5,58.5z M241.5,73.5
			c68.613,0,124.878,53.847,128.776,121.5h-53.883l-27.817,27.817l-45.91-78.703L199.05,195h-86.327
			C116.622,127.347,172.887,73.5,241.5,73.5z M241.5,331.5c-68.613,0-124.878-53.847-128.776-121.5h93.226l34.384-40.115
			l45.09,77.297L322.606,210h47.67C366.378,277.653,310.113,331.5,241.5,331.5z"/>
		<path d="M470,151.5V65h-39V0H52v130H13v86.5h39V483h379V281.5h39V195h-39v-43.5H470z M455,136.5h-24V80h24V136.5z M28,145h24v56.5
			H28V145z M416,468H67v-24h239.5v-15H67v-24h349V468z M455,266.5h-24V210h24V266.5z M416,390H67V15h349V390z"/>
		<rect x="92" y="45.5" width="26" height="15"/>
		<rect x="365" y="45.5" width="26" height="15"/>
		<rect x="92" y="344.5" width="26" height="15"/>
		<rect x="365" y="344.5" width="26" height="15"/>
		<rect x="326" y="429" width="32.5" height="15"/>
	</g>
</g>
<g>
</g>
<g>
</g>
<g>
</g>
<g>
</g>
<g>
</g>
<g>
</g>
<g>
</g>
<g>
</g>
<g>
</g>
<g>
</g>
<g>
</g>
<g>
</g>
<g>
</g>
<g>
</g>
<g>
</g>
</svg>
