<?xml version="1.0" encoding="iso-8859-1"?>
<!-- Generator: Adobe Illustrator 19.0.0, SVG Export Plug-In . SVG Version: 6.00 Build 0)  -->
<svg xmlns="http://www.w3.org/2000/svg" xmlns:xlink="http://www.w3.org/1999/xlink" version="1.1" id="Layer_1" x="0px" y="0px" viewBox="0 0 512 512" style="enable-background:new 0 0 512 512;" xml:space="preserve" width="512px" height="512px">
<g>
	<g>
		<path d="M255.999,76.191c-21.593,0-39.16,17.566-39.16,39.158s17.567,39.158,39.16,39.158c21.593,0,39.16-17.566,39.16-39.158    C295.16,93.757,277.592,76.191,255.999,76.191z M255.999,121.09c-3.167,0-5.743-2.575-5.743-5.741s2.576-5.741,5.743-5.741    s5.743,2.575,5.743,5.741S259.166,121.09,255.999,121.09z" fill="#FFFFFF"/>
	</g>
</g>
<g>
	<g>
		<path d="M177.337,218.348v90.867h157.327v-90.867H177.337z M301.246,275.799h-90.492v-24.032h90.492V275.799z" fill="#FFFFFF"/>
	</g>
</g>
<g>
	<g>
		<path d="M500.875,261.581c-11.236-11.237-27.597-14.287-41.627-9.17l-68.086-67.487v-19.229h-30.707v-44.959    c0-57.594-46.86-104.451-104.457-104.451S151.541,63.142,151.541,120.736v44.959h-30.707v19.229l-68.086,67.487    c-14.029-5.117-30.39-2.066-41.625,9.17C5.144,267.561,1.298,275.135,0,283.486l33.022,5.128c0.14-0.903,0.555-2.228,1.732-3.405    c2.412-2.412,6.335-2.41,8.746,0c2.412,2.412,2.411,6.335,0,8.745c-1.177,1.177-2.502,1.592-3.405,1.732l5.13,33.022    c8.35-1.298,15.923-5.143,21.904-11.123c11.205-11.205,14.271-27.506,9.214-41.508l44.494-44.102v90.509H85.288v173.231h104.511    v-76.833H322.2v76.833h104.511V322.484h-35.547v-90.509l44.494,44.102c-5.057,14.002-1.991,30.304,9.214,41.507    c5.979,5.979,13.553,9.826,21.904,11.123l5.13-33.022c-0.904-0.14-2.228-0.555-3.405-1.731c-2.412-2.412-2.412-6.336,0-8.746    c2.412-2.41,6.335-2.412,8.746,0c1.177,1.177,1.592,2.502,1.732,3.405L512,283.485    C510.702,275.135,506.856,267.561,500.875,261.581z M184.959,120.736c0-39.168,31.869-71.034,71.04-71.034    s71.04,31.865,71.04,71.034v44.959H184.959V120.736z M156.382,462.298h-37.677V449.11h37.677V462.298z M156.382,415.693h-37.677    v-13.188h37.677V415.693z M156.382,369.088h-37.677v-13.188h37.677V369.088z M322.2,385.465H189.799v-62.981h-35.547V199.111    h203.495v123.373H322.2V385.465z M393.294,462.298h-37.677V449.11h37.677V462.298z M393.294,415.693h-37.677v-13.188h37.677    V415.693z M393.294,355.901v13.188h-37.677v-13.188H393.294z" fill="#FFFFFF"/>
	</g>
</g>
<g>
</g>
<g>
</g>
<g>
</g>
<g>
</g>
<g>
</g>
<g>
</g>
<g>
</g>
<g>
</g>
<g>
</g>
<g>
</g>
<g>
</g>
<g>
</g>
<g>
</g>
<g>
</g>
<g>
</g>
</svg>
